<?xml version="1.0" encoding="UTF-8" standalone="no"?>
<!DOCTYPE svg PUBLIC "-//W3C//DTD SVG 1.1//EN" "http://www.w3.org/Graphics/SVG/1.1/DTD/svg11.dtd">
<svg width="100%" height="100%" viewBox="0 0 2578 1618" version="1.1" xmlns="http://www.w3.org/2000/svg" xmlns:xlink="http://www.w3.org/1999/xlink" xml:space="preserve" xmlns:serif="http://www.serif.com/" style="fill-rule:evenodd;clip-rule:evenodd;stroke-linejoin:round;stroke-miterlimit:2;">
    <g transform="matrix(3.118201,0,0,3.118201,-276.633233,-176.946834)">
        <path d="M686.271,135.488C686.326,139.304 685.96,139.406 686.763,140.259C688.711,142.329 688.692,142.26 690.243,144.61C694.175,158.668 683.487,158.884 671.135,177.267C657.863,197.018 660.898,225.326 654.333,247.449C650.773,259.446 627.792,278.77 616.941,291.905C612.678,297.066 606.418,281.862 604.113,277.696C601.421,272.829 597.67,275.55 599.258,279.593C606.281,297.474 617.508,300.019 610.71,303.855C590.078,315.498 576.674,337.429 572.96,345.699C571.187,349.645 575.716,354.483 579.217,347.368C603.278,298.468 662.662,279.735 689.071,317.78C694.911,326.192 693.738,327.234 689.048,336.267C674.033,365.185 674.019,365.096 672.724,367.609C668.476,375.852 674.814,375.752 676.297,374.304C678.226,372.421 697.201,334.251 698.95,330.733C711.315,305.86 705.572,303.696 716.181,281.357C731.208,249.714 753.276,265.022 753.555,264.996C754.402,264.918 761.598,253.631 769.662,250.933C790.172,244.072 798.174,262.206 799.225,264.59C801.557,268.81 803.168,266.729 805.504,266.762C823.546,268.501 833.291,281.205 824.268,302.397C822.879,305.659 826.355,305.946 829.133,310.685C841.813,332.314 802.707,354.831 802.262,355.151C798.04,358.559 798.14,358.534 794.249,362.257C786.907,370.267 783.014,375.005 782.076,376.147L776.11,383.193C755.284,407.817 745.159,417.36 745.612,420.482C750.805,456.253 748.557,456.517 749.447,459.527C750.556,463.281 774.546,427.258 775.157,426.277C780.897,417.063 794.824,413.207 802.384,407.657C806.725,404.471 826.517,393.204 826.517,393.204C831.596,399.212 748.202,550.082 703.876,567.468C703.876,567.468 686.486,573.741 679.81,573.956C666.771,574.376 587.836,577.239 581.684,573.625C575.934,570.247 570.94,573.417 542.794,549.19L537.745,544.257C524.744,530.653 520.746,523.447 516.647,516.419C513.361,511.533 512.341,512.823 506.491,513.035C491.737,512.781 491.804,512.538 485.443,511.934C472.309,509.918 472.342,510.16 459.505,506.481C451.782,504.267 436.793,498.514 436.585,498.375C433.379,496.236 440.268,494.491 434.139,464.566C432.003,454.137 426.053,459.356 426.838,462.422C427.199,463.829 427.679,465.205 428.024,466.616C431.42,480.52 430.269,497.164 428.196,500.317C419.406,513.688 426.906,517.4 416.358,529.374C398.514,549.629 371.74,531.545 368.572,529.405C367.005,528.174 367.009,528.19 366.88,528.076C364.76,526.198 364.906,526.133 362.756,524.229C358.755,520.42 340.838,502.911 338.937,501.053C336.908,499.066 336.986,499.102 334.903,497.083C328.853,491.102 328.932,491.18 322.812,485.176C321.923,484.303 316.763,479.241 311.721,474.24C308.455,471.031 278.291,441.398 270.803,434.221L265.755,429.241C251.927,415.358 248.648,412.321 247.113,410.899C230.71,395.709 203.406,388.516 200.845,367.444C198.969,352.003 210.117,352.451 206.253,345.634C195.642,326.913 205.851,314.715 209.582,311.597C221.397,301.726 228.192,309.517 229.823,302.565C233.802,285.612 256.315,273.926 276.045,295.881C276.238,296.124 278.049,299.597 280.171,298.039C283.631,295.499 283.704,295.811 287.65,293.923C314.056,287.106 326.346,321.543 332.831,342.411C333.9,345.85 332.114,346.85 367.9,403.249C374.269,413.288 376.605,407.293 376.743,406.55C377.34,403.35 353.179,368.195 349.911,361.313C347.741,356.744 366.095,315.948 413.437,327.748C446.019,335.868 457.14,357.117 461.458,353.444C462.373,352.665 465.302,350.174 453.166,340.909C435.18,327.179 434.257,328.833 425.692,325.031C422.581,323.651 424.29,322.712 425.755,319.613C435.572,298.854 448.925,280.847 446.081,277.92C442.728,274.469 442.779,278.838 429.261,301.375C428.077,303.349 426.996,303.061 416.589,295.385C415.792,294.819 406.687,288.355 406.633,288.314C405.102,287.306 399.258,283.081 397.893,282.003C390.681,276.303 390.449,275.961 369.836,227.366C357.852,199.115 336.82,203.908 330.705,189.42C328.163,183.398 328.986,183.117 332.019,177.271C332.606,176.14 329.858,171.938 330.222,167.493C331.238,155.059 340.827,159.568 343.754,153.625C347.766,145.479 357.366,145.424 363.213,150.817C368.41,155.611 371.627,146.191 380.336,153.697C387.852,160.173 384.275,162.702 394.752,187.393C396.396,191.268 419.213,231.658 420.902,234.227C422.156,236.135 424.548,239.774 447.47,244.666C465.016,248.41 464.126,241.619 483.583,235.757C487.565,234.557 486.338,230.642 483.51,230.718C474.414,230.961 464.913,241.816 453.526,240.328C449.066,239.746 447.618,221.672 454.748,208.641C461.486,196.326 452.578,172.07 464.453,173.658C471.662,176.765 471.667,176.708 472.289,176.986C474.288,177.923 475.975,178.756 476.294,178.914C481.328,181.191 481.61,181.995 486.535,179.571C516.926,164.318 543.361,177.575 545.526,178.429C548,179.405 552.712,176.659 557.357,173.909C557.827,173.631 558.609,172.812 558.97,173.215C567.568,182.84 561.312,171.993 561.797,171.715C565.519,169.581 568.747,168.291 570.428,172.011C572.19,175.911 572.348,184.681 574.011,196.558C575.279,206.685 583.833,208.251 583.318,228.502C583.018,240.306 576.761,232.866 561.398,228.997C553.089,226.904 554.403,232.562 556.598,233.23C575.03,238.837 574.812,239.447 576.454,239.762C587.731,241.929 612.091,222.591 614.107,220.182C616.55,217.264 627.46,172.544 629.314,162.468C632.142,147.108 626.669,122.113 645.541,125.295C649.555,125.972 650.342,117.648 657.515,116.564C665.621,115.338 668.507,120.379 669.588,121.417C672.63,124.34 685.213,117.61 686.271,135.488ZM733.113,433.123L729.343,437.374C727.544,439.577 727.545,439.5 725.642,441.624C695.524,475.237 678.951,505.675 651.457,494.587C639.506,489.767 636.008,474.619 635.518,472.495C634.61,468.561 631.484,465.513 630.77,463.393C624.25,444.041 633.594,428.424 627.427,426.926C622.65,425.766 618.611,446.93 625.268,466.581C626.78,471.045 626.085,471.358 622.591,474.601C598.318,497.131 572.559,501.889 571.731,502.767C569.507,505.122 596.432,532.941 634.538,529.978C672.118,527.057 698.799,509.116 723.591,487.603C729.316,482.291 729.336,482.334 729.827,481.866L731.849,479.881C736.87,474.855 736.817,474.892 741.797,469.802C743.782,467.701 743.787,467.783 745.564,465.541C745.607,465.428 745.648,465.315 745.688,465.202C745.851,465.031 746.074,464.855 745.971,464.703C745.944,464.664 745.917,464.626 745.891,464.589C746.983,461.013 746.36,457.929 745.978,451.465C745.832,449.23 744.512,429.106 743.068,423.616C742.553,421.658 740.921,423.616 740.804,423.755C733.655,432.333 733.766,432.406 733.113,433.123ZM539.193,190.374C543.933,182.947 545.259,192.967 545.331,193.514C545.837,197.339 556.946,199.742 555.297,193.535C550.775,176.523 527.242,185.688 531.69,190.318C536.762,195.598 538.94,190.918 539.193,190.374ZM495.65,193.365C501.614,193.396 502.389,191.107 502.581,190.54C504.637,184.462 483.385,180.863 479.495,193.498C476.954,201.751 486.775,199.95 489.003,195.505C489.053,193.516 488.931,193.573 489.213,192.421C491.17,184.452 495.416,192.9 495.65,193.365Z" style="fill:rgb(94,44,3);"/>
    </g>
    <g transform="matrix(3.118201,0,0,3.118201,-276.633233,-176.946834)">
        <path d="M437.589,90.353C437.663,89.2 437.242,89.048 438.241,88.304C441.403,85.949 463.166,69.74 477.576,58.602C480.404,56.416 480.84,56.892 569.499,56.862C584.409,56.856 590.174,56.041 585.883,58.822C582.953,60.721 546.778,88.511 544.633,89.743C544.085,90.058 544.071,90.405 437.589,90.353Z" style="fill:rgb(49,27,3);"/>
    </g>
    <g transform="matrix(3.118201,0,0,3.118201,-276.633233,-176.946834)">
        <path d="M257.048,371.563C256.346,363.603 255.925,358.269 263.685,351.741C271.571,345.107 280.942,349.36 282.304,349.979C292.744,354.717 293.062,353.405 304.48,353.87C317.161,354.386 328.052,375.737 303.512,384.539C290.84,389.084 292.238,391.26 282.418,400.413C268.275,413.594 251.98,400.289 255.765,386.581C257.811,379.172 257.802,379.16 257.048,371.563Z" style="fill:rgb(159,81,36);"/>
    </g>
    <g transform="matrix(3.118201,0,0,3.118201,-276.633233,-176.946834)">
        <path d="M783.041,348.522C781.425,361.807 768.675,368.039 755.954,356.037C744.958,345.662 743.927,347.208 734.517,344.453C716.541,339.19 722.05,318.449 734.449,317.183C741.495,316.464 743.673,318.278 754.622,311.701C761.399,307.63 781.665,307.065 779.306,332.482C778.796,337.971 781.869,339.619 783.041,348.522Z" style="fill:rgb(159,81,36);"/>
    </g>
    <g transform="matrix(3.118201,0,0,3.118201,-276.633233,-176.946834)">
        <path d="M237.903,196.907C292.411,140.157 379.933,100.498 382.042,102.921C386.402,107.931 318.554,121.738 239.436,200.435C137.446,301.882 124.781,421.971 121.618,422.764C119.164,423.38 118.902,421.204 126.614,391.532C157.408,273.049 228.529,206.959 233.871,200.9C234.693,200.077 234.684,200.201 235.44,199.443C235.64,199.242 235.623,199.255 237.903,196.907Z" style="fill:rgb(52,50,2);"/>
    </g>
    <g transform="matrix(3.118201,0,0,3.118201,-276.633233,-176.946834)">
        <path d="M276.332,209.307C274.621,210.933 272.91,212.559 271.199,214.186C266.117,219.139 266.148,219.082 261.118,224.122C259.478,225.814 257.837,227.506 256.197,229.198C251.737,233.973 251.722,233.935 251.338,234.352C241.182,245.763 241.079,245.566 231.388,257.409C230.066,259.163 226.489,263.612 226.058,264.147C203.473,292.158 180.474,333.414 166.939,368.672C133.305,456.29 134.094,533.079 132.383,534.346C130.099,536.038 130.481,528.991 130.508,528.5C135.392,438.325 158.696,379.792 165.906,361.68C166.47,360.298 167.035,358.917 167.599,357.536C172.57,346.227 172.574,346.245 173.002,345.261C215.654,247.203 304.547,180.389 306.321,180.968C309.943,182.149 303.001,184.576 276.332,209.307Z" style="fill:rgb(52,49,2);"/>
    </g>
    <g transform="matrix(3.118201,0,0,3.118201,-276.633233,-176.946834)">
        <path d="M152.567,253.556C101.192,318.867 92.759,360.064 88.854,356.118C86.309,353.547 119.513,289.061 144.687,257.648C187.818,203.826 204.32,193.508 239.679,165.737C240.205,165.324 265.154,148.144 267.586,146.699C268.656,146.064 271.193,146.91 268.304,149.288C268.166,149.402 241.483,166.591 213.915,189.971C198.282,203.229 166.437,234.755 152.567,253.556Z" style="fill:rgb(49,47,1);"/>
    </g>
    <g transform="matrix(3.118201,0,0,3.118201,-276.633233,-176.946834)">
        <path d="M244.926,307.669C256.394,291.491 272.79,314.193 272.794,324.489C272.802,348.217 237.667,332.719 244.926,307.669Z" style="fill:rgb(158,82,36);"/>
    </g>
    <g transform="matrix(3.118201,0,0,3.118201,-276.633233,-176.946834)">
        <path d="M855.673,234.386C863.839,246.941 884.36,274.471 903.34,329.552C905.772,336.612 916.335,372.279 915.047,374.176C909.998,381.61 908.692,318.204 851.946,235.193C824.967,195.727 808.036,185.27 814.493,185.639C816.043,185.727 836.988,208.64 849.36,225.607C852.839,230.378 852.824,230.34 853.116,230.758C855.283,233.861 855.22,233.795 855.673,234.386Z" style="fill:rgb(55,51,1);"/>
    </g>
    <g transform="matrix(3.118201,0,0,3.118201,-276.633233,-176.946834)">
        <path d="M873.605,421.474C882.336,461.1 888.411,506.618 879.805,566.558C879.207,570.728 876.733,568.968 876.862,567.493C878.897,544.287 882.774,539.329 879.242,480.512C875.749,422.331 852.503,365.911 848.608,356.46C848.527,356.262 847.766,348.416 850.991,355.262C862.813,380.355 872.184,416.06 873.605,421.474Z" style="fill:rgb(56,53,2);"/>
    </g>
    <g transform="matrix(3.118201,0,0,3.118201,-276.633233,-176.946834)">
        <path d="M246.973,346.555C241.379,370.834 204.379,338.294 220.662,326.753C226.052,322.933 246.083,327.234 246.973,346.555Z" style="fill:rgb(157,82,37);"/>
    </g>
    <g transform="matrix(3.118201,0,0,3.118201,-276.633233,-176.946834)">
        <path d="M817.443,171.555C819.392,173.602 821.341,175.65 823.289,177.697C824.172,178.649 828.218,183.013 834.014,189.884C835.366,191.542 836.718,193.2 838.07,194.858C854.14,214.967 871.309,242.235 868.7,242.812C866.315,243.339 864.284,236.551 852.049,218.81C827.872,183.751 785.27,140.612 737.777,113.063C731.772,109.579 724.747,105.81 728.397,105.238C729.331,105.091 750.798,116.038 774.751,134.15C797.23,151.148 803.104,157.4 817.443,171.555Z" style="fill:rgb(53,50,1);"/>
    </g>
    <g transform="matrix(3.118201,0,0,3.118201,-276.633233,-176.946834)">
        <path d="M764.485,295.514C755.762,283.207 768.459,268.615 774.589,266.807C797.979,259.908 784.727,309.716 764.485,295.514Z" style="fill:rgb(156,80,35);"/>
    </g>
    <g transform="matrix(3.118201,0,0,3.118201,-276.633233,-176.946834)">
        <path d="M840.557,574.669C843.797,553.518 849.951,520.436 847.182,464.51C845.692,434.429 839.769,407.341 838.699,402.445C836.999,394.671 837.852,394.397 838.497,394.395C842.574,394.38 857.378,475.37 849.003,539.445C844.758,571.919 844.407,571.878 844.426,574.724C843.136,574.705 841.847,574.687 840.557,574.669Z" style="fill:rgb(55,51,2);"/>
    </g>
    <g transform="matrix(3.118201,0,0,3.118201,-276.633233,-176.946834)">
        <path d="M293.6,307.849C309.434,306.649 313.727,329.393 309.163,336.277C298.109,352.952 274.19,315.389 293.6,307.849Z" style="fill:rgb(158,81,36);"/>
    </g>
    <g transform="matrix(3.118201,0,0,3.118201,-276.633233,-176.946834)">
        <path d="M844.623,319.427C839.398,309.237 834.146,301.634 834.748,299.599C835.576,296.801 838.174,301.306 838.338,301.591C856.713,333.452 868.625,353.552 881.059,403.602C886.641,426.071 890.032,455.041 889.851,457.597C889.73,459.308 887.611,459.454 887.307,457.568C881.659,422.494 879.476,384.917 844.623,319.427Z" style="fill:rgb(58,55,3);"/>
    </g>
    <g transform="matrix(3.118201,0,0,3.118201,-276.633233,-176.946834)">
        <path d="M241.47,138.449C189.193,172.61 176.565,193.941 175.821,188.434C175.638,187.078 220.34,139.003 294.302,105.023C299.127,102.806 330.739,87.347 324.332,94.34C324.248,94.432 275.789,115.313 241.47,138.449Z" style="fill:rgb(49,47,1);"/>
    </g>
    <g transform="matrix(3.118201,0,0,3.118201,-276.633233,-176.946834)">
        <path d="M804.601,309.699C803.31,310.426 788.76,318.612 786.83,304.48C784.947,290.684 809.765,276.491 813.619,290.466C816.429,300.657 805.951,308.667 804.601,309.699Z" style="fill:rgb(155,80,35);"/>
    </g>
    <g transform="matrix(3.118201,0,0,3.118201,-276.633233,-176.946834)">
        <path d="M242.381,382.434C232.198,397.881 202.287,372.223 218.625,362.747C226.113,358.404 248.908,368.918 242.381,382.434Z" style="fill:rgb(158,83,37);"/>
    </g>
    <g transform="matrix(3.118201,0,0,3.118201,-276.633233,-176.946834)">
        <path d="M224.572,574.708C224.2,568.133 216.574,531.565 222.288,485.47C225.692,458.009 234.057,429.495 236.395,424.423C236.88,423.371 239.923,422.656 238.677,426.558C213.262,506.171 228.214,569.109 227.452,574.671C226.492,574.683 225.532,574.695 224.572,574.708Z" style="fill:rgb(49,46,1);"/>
    </g>
    <g transform="matrix(3.118201,0,0,3.118201,-276.633233,-176.946834)">
        <path d="M735.518,304.856C713.268,302.302 736.127,259.99 747.221,279.651C750.423,285.327 747.985,303.252 735.518,304.856Z" style="fill:rgb(157,82,36);"/>
    </g>
    <g transform="matrix(3.118201,0,0,3.118201,-276.633233,-176.946834)">
        <path d="M795.279,339.76C786.185,329.715 801.777,315.914 813.55,318.066C830.306,321.129 809.262,350.169 795.279,339.76Z" style="fill:rgb(157,82,37);"/>
    </g>
    <g transform="matrix(3.118201,0,0,3.118201,-276.633233,-176.946834)">
        <path d="M651.495,165.519C648.936,165.039 649.017,164.992 646.484,164.579C638.21,163.232 637.159,154.084 645.609,151.992C654.109,149.887 654.773,145.73 659.513,147.45C665.345,149.567 665.223,157.331 665.272,157.557C665.598,159.031 668.769,162.729 667.714,166.551C665.158,175.806 653.623,166.601 651.495,165.519Z" style="fill:rgb(151,80,33);"/>
    </g>
    <g transform="matrix(3.118201,0,0,3.118201,-276.633233,-176.946834)">
        <path d="M830.68,147.288C792.456,114.568 786.855,115.705 790.14,113.013C791.536,111.869 825.017,135.218 852.199,162.804C870.519,181.397 896.466,213.802 886.432,207.6C881.493,204.548 880.676,193.21 830.68,147.288Z" style="fill:rgb(51,49,1);"/>
    </g>
    <g transform="matrix(3.118201,0,0,3.118201,-276.633233,-176.946834)">
        <path d="M362.503,200.751C353.02,199.189 357.372,195.082 356.77,185.465C356.466,180.596 359.439,174.737 366.388,176.912C371.299,178.45 371.343,177.979 376.491,178.656C381.999,179.38 385.359,187.531 376.398,191.272C368.416,194.604 370.999,199.254 362.503,200.751Z" style="fill:rgb(153,80,34);"/>
    </g>
    <g transform="matrix(3.118201,0,0,3.118201,-276.633233,-176.946834)">
        <path d="M242.1,469.451C242.825,463.999 242.806,464.032 242.883,463.563C242.983,462.945 244.435,454.037 246.407,456.571C247.245,457.647 246.673,457.773 244.946,473.556C240.238,516.578 246.537,544.96 245.815,547.671C245.747,547.928 243.978,550.018 243.232,545.567C236.608,506.015 241.903,471.288 242.1,469.451Z" style="fill:rgb(46,44,1);"/>
    </g>
    <g transform="matrix(3.118201,0,0,3.118201,-276.633233,-176.946834)">
        <path d="M777.372,233.62C783.071,239.999 782.915,240.095 785.282,242.587C784.133,244.566 783.689,244.071 781.622,243.318C781.042,242.785 779.333,241.215 774.893,236.139C759.938,220.016 760.29,219.748 744.389,204.62C731.337,192.202 723.972,187.607 724.313,185.389C724.929,181.375 762.967,217.124 777.372,233.62Z" style="fill:rgb(52,50,1);"/>
    </g>
    <g transform="matrix(3.118201,0,0,3.118201,-276.633233,-176.946834)">
        <path d="M360.562,257.537C347.624,279.445 343.062,287.278 333.501,314.501C332.728,316.702 330.243,316.151 330.932,313.563C343.701,265.618 387.89,215.535 360.562,257.537Z" style="fill:rgb(52,51,2);"/>
    </g>
    <g transform="matrix(3.118201,0,0,3.118201,-276.633233,-176.946834)">
        <path d="M583.449,149.526C577.196,138.358 576.154,137.629 573.908,134.239C570.793,129.54 575.228,131.43 575.386,131.613C593.121,152.187 603.097,186.361 604.59,191.476C604.686,191.805 606.054,196.492 603.438,195.608C599.906,194.414 605.57,190.623 583.449,149.526Z" style="fill:rgb(57,56,3);"/>
    </g>
    <g transform="matrix(3.118201,0,0,3.118201,-276.633233,-176.946834)">
        <path d="M269.154,258.248C280.231,244.588 279.839,244.342 287.484,236.484C288.156,235.793 302.696,221.413 304.488,221.25C307.983,220.931 304.061,224.656 303.849,224.858C274.321,252.91 261.449,275.461 260.621,275.733C255.075,277.556 264.286,265.371 269.154,258.248Z" style="fill:rgb(47,44,0);"/>
    </g>
    <g transform="matrix(3.118201,0,0,3.118201,-276.633233,-176.946834)">
        <path d="M437.399,147.413C438.941,145.665 454.25,128.312 458.419,127.243C466.503,125.17 449.369,136.662 433.007,158.121C423.186,171.003 423.86,171.44 421.135,175.206C419.531,177.422 417.582,176.085 418.866,173.686C425.351,161.569 435.732,149.372 437.399,147.413Z" style="fill:rgb(49,48,1);"/>
    </g>
    <g transform="matrix(3.118201,0,0,3.118201,-276.633233,-176.946834)">
        <path d="M516.972,195.5C518.201,196.084 518.321,195.902 518.88,197.182C522.142,204.645 533.774,205.175 537.18,214.531C538.002,216.791 536.064,217.407 534.872,215.29C526.255,199.989 506.583,203.639 499.932,216.804C498.192,220.247 497.423,217.245 497.625,216.523C500.195,207.326 510.317,206.939 516.972,195.5Z" style="fill:rgb(63,24,0);"/>
    </g>
    <g transform="matrix(3.118201,0,0,3.118201,-276.633233,-176.946834)">
        <path d="M696.119,270.661C680.219,236.261 676.506,237.813 676.755,234.544C677.537,224.26 705.857,278.11 702.414,281.413C700.539,283.212 700.76,280.844 696.119,270.661Z" style="fill:rgb(54,53,1);"/>
    </g>
    <g transform="matrix(3.118201,0,0,3.118201,-276.633233,-176.946834)">
        <path d="M425.547,120.572C398.307,137.119 392.933,145.285 395.7,138.551C396.081,137.626 408.224,126.222 423.677,117.847C424.91,117.179 432.873,112.363 432.755,115.504C432.729,116.208 432.724,116.333 425.547,120.572Z" style="fill:rgb(51,49,2);"/>
    </g>
    <g transform="matrix(3.118201,0,0,3.118201,-276.633233,-176.946834)">
        <path d="M351.452,174.511C349.75,186.64 332.673,170.389 341.344,167.091C347.567,164.723 351.082,173.578 351.452,174.511Z" style="fill:rgb(148,81,36);"/>
    </g>
    <g transform="matrix(3.118201,0,0,3.118201,-276.633233,-176.946834)">
        <path d="M609.644,169.443C609.717,169.762 610.875,174.788 608.556,173.383C606.448,172.106 608.53,170.679 593.581,146.457C592.014,143.917 594.867,142.963 597.008,145.927C604.706,156.584 606.231,161.265 609.644,169.443Z" style="fill:rgb(57,55,1);"/>
    </g>
    <g transform="matrix(3.118201,0,0,3.118201,-276.633233,-176.946834)">
        <path d="M353.668,167.373C353.348,166.823 350.607,162.119 351.799,159.637C353.044,157.042 355.152,157.071 355.512,157.076C364.356,157.197 365.067,177.54 353.668,167.373Z" style="fill:rgb(154,83,37);"/>
    </g>
    <g transform="matrix(3.118201,0,0,3.118201,-276.633233,-176.946834)">
        <path d="M654.776,138.299C654.435,137.423 651.75,130.537 657.73,126.928C666.81,121.447 664.727,146.698 654.776,138.299Z" style="fill:rgb(155,86,37);"/>
    </g>
    <g transform="matrix(3.118201,0,0,3.118201,-276.633233,-176.946834)">
        <path d="M669.439,135.451C675.618,129.243 680.979,133.959 676.605,141.563C673.151,147.567 662.921,145.738 669.439,135.451Z" style="fill:rgb(147,79,35);"/>
    </g>
    <g transform="matrix(3.118201,0,0,3.118201,-276.633233,-176.946834)">
        <path d="M680.498,147.729C692.752,149.368 672.998,165.558 672.283,155.524C671.823,149.067 679.603,147.867 680.498,147.729Z" style="fill:rgb(151,83,37);"/>
    </g>
    <g transform="matrix(3.118201,0,0,3.118201,-276.633233,-176.946834)">
        <path d="M373.57,159.146C383.859,163.425 376.311,177.356 370.79,169.241C370.189,168.357 368.385,165.559 369.199,162.43C370.247,158.398 373.065,159.191 373.57,159.146Z" style="fill:rgb(148,81,35);"/>
    </g>
    <g transform="matrix(3.118201,0,0,3.118201,-276.633233,-176.946834)">
        <path d="M517.475,194.404C514.486,193.917 514.851,193.276 513.227,190.666C512.231,189.066 505.461,189.784 509.77,186.881C518.008,181.329 531.609,188.905 522.476,189.2C518.548,189.327 520.679,192.17 517.475,194.404Z" style="fill:rgb(155,86,41);"/>
    </g>
    <g transform="matrix(3.118201,0,0,3.118201,-276.633233,-176.946834)">
        <path d="M341.366,191.713C333.812,186.071 338.816,181.904 344.481,183.564C351.42,185.598 351.607,195.568 341.366,191.713Z" style="fill:rgb(143,77,35);"/>
    </g>
    <g transform="matrix(3.118201,0,0,3.118201,-276.633233,-176.946834)">
        <path d="M647.462,140.494C642.935,153.33 634.578,139.186 640.956,133.919C643.702,131.651 645.73,133.693 646.015,133.98C647.473,135.449 647.464,139.96 647.462,140.494Z" style="fill:rgb(145,81,35);"/>
    </g>
    <g transform="matrix(3.118201,0,0,3.118201,-276.633233,-176.946834)">
        <path d="M363.77,266.666C367.102,261.621 368.176,263.161 368.4,263.547C368.798,264.234 356.654,287.689 355.433,288.119C353.696,288.73 352.492,286.362 363.77,266.666Z" style="fill:rgb(52,51,1);"/>
    </g>
    <g transform="matrix(3.118201,0,0,3.118201,-276.633233,-176.946834)">
        <path d="M167.599,357.536C167.035,358.917 166.47,360.298 165.906,361.68C165.732,361.099 164.694,361.081 164.52,360.5C164.121,359.168 164.645,359.247 165.964,356.712C168.12,352.568 167.529,357.388 167.599,357.536Z" style="fill:rgb(186,202,59);"/>
    </g>
</svg>
