<?xml version="1.0" encoding="UTF-8" standalone="no"?>
<!DOCTYPE svg PUBLIC "-//W3C//DTD SVG 1.1//EN" "http://www.w3.org/Graphics/SVG/1.1/DTD/svg11.dtd">
<svg width="100%" height="100%" viewBox="0 0 701 364" version="1.1" xmlns="http://www.w3.org/2000/svg" xmlns:xlink="http://www.w3.org/1999/xlink" xml:space="preserve" xmlns:serif="http://www.serif.com/" style="fill-rule:evenodd;clip-rule:evenodd;stroke-linejoin:round;stroke-miterlimit:2;">
    <g transform="matrix(1.003906,0,0,1.003906,-127.177643,-37.782779)">
        <path d="M680.44,186.587C678.989,186.562 678.923,186.444 678.878,186.56C678.694,187.035 679.159,186.997 678.965,187.498C692.593,223.282 686.844,229.312 696.645,237.312C700.339,240.328 703.432,238.297 708.013,253.656C708.65,255.792 714.484,275.351 715.366,280.522C715.81,283.121 714.145,282.928 695.486,282.9C690.868,282.894 691.845,277.252 686.343,266.583C681.957,258.078 661.588,265.645 641.087,241.934C622.915,220.915 627.124,218.205 625.228,216.767C624.977,216.577 624.682,217.464 624.431,217.274L623.591,217.528C624.281,226.411 632.403,237.74 632.404,237.978C632.419,239.924 616.665,244.169 594.539,242.107C590.625,241.742 588.155,241.687 590.431,238.452C592.37,235.696 600.754,223.777 585.253,196.657C569.858,169.721 589.17,205.722 589.727,225.497C589.828,229.063 590.094,238.516 559.243,258.052C535.997,272.772 534.6,273.454 533.145,288.446C531.218,308.307 507.421,313.25 503.197,296.578C501.301,289.095 505.165,279.655 501.475,286.465C496.732,295.218 500.793,302.445 501.143,303.591C501.77,305.649 496.886,311.792 490.611,313.861C471.215,320.257 466.305,296.99 472.892,285.619C473,285.433 479.061,274.756 472.24,283.023C463.937,293.087 465.168,300.225 467.155,308.583C467.363,309.457 468.386,312.466 459.512,312.156C444.914,311.647 437.235,290.691 454.298,276.298C454.428,276.189 458.915,271.329 453.461,274.342C437.216,283.318 440.616,297.332 440.483,300.495C440.324,304.254 430.429,297.101 430.976,287.483C432.522,260.305 458.315,259.852 477.497,254.488C492.515,250.288 518.98,231.233 525.268,225.268C526.547,224.055 535.248,215.801 524.652,203.238C520.366,198.156 524.513,207.138 524.655,207.443C526.151,210.683 527.289,217.429 524.462,220.466C522.066,223.038 511.372,230.674 510.359,231.256C503.896,234.97 482.171,224.52 468.473,227.376C458.951,229.361 424.273,252.388 388.71,233.102C330.281,201.413 344.953,157.517 346.53,144.504C347.58,135.837 320.054,89.004 324.99,79.737C327.336,75.334 336.837,78.561 337.452,78.702C345.271,80.502 375.123,92.779 381.67,96.166C387.834,99.354 387.857,97.236 394.586,95.722C415.143,91.096 435.769,88.268 437.57,87.74C440.791,86.796 446.471,58.131 454.689,44.332C455.032,43.757 458.957,49.771 459.739,49.945C460.413,50.095 459.562,44.913 458.71,43.574C457.757,42.075 458.251,37.664 459.584,37.637C466.096,37.502 485.638,49.873 502.743,105.417C520.019,161.517 517.72,188.1 481.06,216.36C480.933,216.469 479.02,218.102 480.506,218.377C480.858,218.442 481.098,217.799 481.451,217.864C487.359,215.35 505.001,200.511 511.233,188.363C528.226,155.24 513.017,124.748 505.531,96.494C504.408,92.256 524.577,95.033 530.399,96.818C550.168,102.879 566.82,122.91 567.674,123.019C567.967,123.056 568.207,122.661 568.5,122.698C568.425,122.524 569.118,122.707 569.043,122.534C568.25,120.707 562.184,113.556 559.252,110.599C558.759,110.102 559.096,110.101 559.429,109.427C559.836,108.604 560.163,109.121 577.563,113.177C684.754,138.158 698.1,235.281 774.496,243.539C781.272,244.271 793.611,249.504 806.094,253.079C807.593,253.508 811.566,255.312 809.193,254.91C799.488,253.266 764.868,272.361 725.736,244.158C709.196,232.238 692.776,218.116 691.774,215.411C682.851,191.333 683.329,191.131 680.44,186.587ZM377.431,199.243C399.917,191.539 380.776,162.633 369.384,157.74C342.963,146.391 343.903,206.652 377.431,199.243ZM449.401,189.03C451.034,188.559 461.963,185.41 467.052,177.223C481.007,154.777 457.073,130.878 434.82,145.956C421.988,154.649 409.915,193.735 449.401,189.03Z" style="fill:rgb(93,44,4);"/>
    </g>
    <g transform="matrix(1.003906,0,0,1.003906,-127.177643,-37.782779)">
        <path d="M815.774,294.808C816.308,294.686 827.08,293.912 823.841,299.711C822.557,302.01 793.098,312.284 712.567,337.707C614.761,368.584 529.353,394.28 513.387,399.084C507.169,400.954 507.02,399.879 395.5,400.01C376.378,400.032 161.869,400.283 156.471,399.946C146.129,399.3 143.788,378.955 137.5,378.499C126.927,377.732 126.809,375.119 126.79,364.5C126.722,326.292 125.603,323.243 132.473,322.283C134.467,322.004 268.641,329.276 280.48,329.918C424.035,337.698 424.04,337.427 436.513,338.249C488.973,341.075 488.953,341.035 493.51,341.327C518.405,342.922 521.182,340.163 536.572,337.903C552.266,335.598 586.966,330.501 732.475,307.329C841.125,290.027 806.496,297.117 815.774,294.808Z" style="fill:rgb(60,37,26);"/>
    </g>
    <g transform="matrix(1.003906,0,0,1.003906,-127.177643,-37.782779)">
        <path d="M263.352,262.974C262.138,263.379 256.428,265.282 253.379,275.471C251.124,283.008 256.915,294.141 255.243,295.146C245.842,300.801 219.747,297.472 224.153,272.403C226.219,260.645 238.956,257.923 234.52,257.415C233.462,257.294 224.73,260.115 220.928,267.712C216.167,277.222 222.5,289.425 217.334,286.909C199.906,278.419 197.565,248.579 233.484,245.354C234.909,245.226 269.154,248.714 319.773,218.984C319.784,218.977 347.013,204.761 347.538,204.694C353.367,203.948 349.521,218.636 389.317,237.889C390.385,238.406 396.406,239.724 395.348,241.352C394.526,242.618 393.946,241.653 377.663,247.927C306.444,275.366 306.182,275.013 300.841,278.938C297.127,281.669 286.887,302.359 266.678,295.069C261.346,293.145 257.049,285.232 257.755,275.521C258.341,267.468 262.173,267.411 263.352,262.974Z" style="fill:rgb(93,44,4);"/>
    </g>
    <g transform="matrix(1.003906,0,0,1.003906,-127.177643,-37.782779)">
        <path d="M538.771,291.537C539.713,288.198 540.017,287.922 543.493,287.857C568.163,287.389 568.559,287.556 570.554,288.398C574.959,290.257 581.996,321.477 581.994,321.504C581.666,325.596 578.673,324.599 514.542,333.798C508.155,334.715 396.028,329.312 394.663,328.265C391.905,326.151 394.265,321.337 394.51,320.503C403.421,290.293 403.714,288.78 408.509,288.681C423.216,288.377 424.232,288.435 424.807,291.478C425.113,293.097 427.135,303.79 437.382,307.792C449.849,312.661 448.369,322.2 468.5,317.502C473.076,316.434 487.156,329.214 502.975,312.904C507.296,308.45 508.201,312.817 515.522,313.024C532.864,313.513 538.114,293.982 538.771,291.537ZM426.655,307.322C425.534,306.432 425.637,306.482 425.534,306.432C418.239,302.914 426.92,318.795 440.463,320.876C447.203,321.911 439.532,318.512 426.655,307.322ZM533.316,316.333C533.469,316.124 538.323,309.516 531.56,313.609C517.844,321.91 514.664,318.006 506.431,318.171C499.476,318.311 517.969,331.513 533.316,316.333Z" style="fill:rgb(59,38,22);"/>
    </g>
    <g transform="matrix(1.003906,0,0,1.003906,-127.177643,-37.782779)">
        <path d="M302.5,289.838C308.276,289.928 314.047,287.437 316.214,299.53C316.336,300.211 311.38,323.391 307.471,324.38C304.811,325.054 220.363,320.521 216.513,320.269C176.519,317.652 168.888,321.979 171.896,312.601C179.613,288.548 179.382,287.195 183.541,286.784C185.582,286.582 203.708,286.569 205.371,286.965C209.909,288.046 208.184,291.734 221.39,294.993C223.228,295.447 236.484,308.953 255.376,302.166C260.343,300.381 260.446,299.853 265.438,301.664C282.597,307.89 296.606,293.52 298.54,291.537C300.542,289.483 301.23,290.019 302.5,289.838ZM201.042,295.769C201.945,297.011 206.908,303.841 218.539,303.656C224.837,303.555 212.157,299.488 204.134,293.993C203.838,293.79 199.358,290.722 199.691,293.473C199.716,293.684 199.791,293.643 201.042,295.769ZM289.569,305.716C280.587,307.793 280.68,307.768 271.528,308.63C264.908,309.253 279.945,318.661 295.215,306.191C302.59,300.169 289.986,305.539 289.569,305.716Z" style="fill:rgb(58,38,22);"/>
    </g>
    <g transform="matrix(1.003906,0,0,1.003906,-127.177643,-37.782779)">
        <path d="M323.746,296.569C324.089,295.601 325.206,291.179 326.787,289.883C329.326,287.8 381.366,288.62 382.63,289.16C386.756,290.921 391.119,310.575 390.686,312.531C387.498,326.921 386.049,328.181 381.499,328.167C377.309,328.155 321.869,325.316 319.535,325.132C313.761,324.678 318.03,317.036 323.746,296.569Z" style="fill:rgb(59,37,24);"/>
    </g>
    <g transform="matrix(1.003906,0,0,1.003906,-127.177643,-37.782779)">
        <path d="M727.246,297.566C727.722,299.51 729.774,303.207 725.553,303.798C717.791,304.886 630.143,317.17 628.494,317.147C624.63,317.094 625.301,315.374 618.522,293.494C616.132,285.781 621.236,286.992 641.503,286.839C721.124,286.24 722.345,284.661 724.066,287.761C724.466,288.482 724.385,288.489 727.246,297.566Z" style="fill:rgb(59,37,23);"/>
    </g>
    <g transform="matrix(1.003906,0,0,1.003906,-117.91722,-47.043202)">
        <path d="M607.513,246.861C624.124,246.386 622.949,244.821 623.727,249.604C624.116,252 632.427,255.543 633.263,256.686C638.442,263.776 616.857,295.763 616.419,295.87C615.531,296.087 595.097,296.846 594.915,296.824C592.36,296.519 603.736,274.873 606.203,269.369C609.48,262.06 597.73,267.594 580.676,252.305C577.635,249.579 583.597,245.57 586.449,245.901C597.856,247.226 597.811,246.747 607.513,246.861Z" style="fill:rgb(93,44,4);"/>
    </g>
    <g transform="matrix(1.003906,0,0,1.003906,-127.177643,-37.782779)">
        <path d="M597.552,321.912C590.879,322.529 590.693,323.37 588.744,322.083C586.393,320.53 587.45,319.774 578.751,292.441C576.905,286.642 580.464,287.794 586.506,287.672C610.245,287.193 611.73,286.829 613.333,291.557C621.928,316.909 620.716,317.992 618.659,318.835C617.08,319.483 616.977,318.963 597.552,321.912Z" style="fill:rgb(58,36,23);"/>
    </g>
    <g transform="matrix(1.003906,0,0,1.003906,-127.177643,-37.782779)">
        <path d="M730.125,297.62C727.562,289.2 727.554,289.261 727.357,288.527C726.371,284.854 736.538,285.754 738.51,285.742C742.368,285.718 743.219,286.24 746.122,297.571C747.219,301.855 744.889,300.994 740.527,301.652C735.111,302.469 732.92,304.859 730.125,297.62Z" style="fill:rgb(58,39,19);"/>
    </g>
    <g transform="matrix(1.003906,0,0,1.003906,-127.177643,-37.782779)">
        <path d="M761.174,288.607C763.046,294.583 765.072,298.447 761.58,298.955C752.924,300.213 749.981,301.527 748.811,297.4C746.577,289.519 744.722,285.762 748.51,285.686C757.665,285.503 759.37,284.935 761.174,288.607Z" style="fill:rgb(54,35,18);"/>
    </g>
    <g transform="matrix(1.003906,0,0,1.003906,-125.34135,-30.982836)">
        <path d="M447.374,179.478C442.471,198.445 429.049,166.125 439.554,163.844C442.416,163.223 444.739,167.315 445.005,167.783C447.173,171.603 447.35,178.524 447.374,179.478Z" style="fill:rgb(93,44,4);"/>
    </g>
    <g transform="matrix(1.003906,0,0,1.003906,-126.075867,-31.539384)">
        <path d="M368.484,188.505C365.752,173.356 371.499,175.042 372.546,175.379C373.53,175.696 379.51,180.314 378.782,190.52C378.723,191.358 375.407,203.716 368.484,188.505Z" style="fill:rgb(93,44,4);"/>
    </g>
    <g transform="matrix(1.003906,0,0,1.003906,-127.177643,-37.782779)">
        <path d="M764.138,289.59C763.762,287.656 763.732,287.671 763.732,287.501C763.722,284.225 775.021,285.541 775.407,285.731C776.692,286.362 778.251,291.958 778.411,292.531C780.048,298.408 776.542,297.009 770.547,297.81C765.162,298.529 765.415,293.527 764.138,289.59Z" style="fill:rgb(55,39,16);"/>
    </g>
    <g transform="matrix(1.003906,0,0,1.003906,-127.177643,-37.782779)">
        <path d="M790.468,295.125C783.302,295.89 782.379,296.446 781.394,293.542C780.031,289.52 778.158,285.36 782.491,285.263C783.171,285.248 790.181,285.092 790.951,286.137C791.888,287.41 793.019,292.022 793.148,292.549C793.702,294.807 792.627,294.453 790.468,295.125Z" style="fill:rgb(54,38,16);"/>
    </g>
    <g transform="matrix(1.003906,0,0,1.003906,-127.177643,-37.782779)">
        <path d="M803.487,284.901C807.716,285.64 807.564,286.351 808.702,290.466C809.417,293.055 807.507,292.657 799.551,293.809C793.125,294.738 793.941,285.686 794.443,285.418C795.593,284.803 795.578,285.089 803.487,284.901Z" style="fill:rgb(54,39,16);"/>
    </g>
    <g transform="matrix(1.003906,0,0,1.003906,-127.177643,-37.782779)">
        <path d="M481.06,216.36L481.451,217.864C481.098,217.799 480.858,218.442 480.506,218.377C479.02,218.102 480.933,216.469 481.06,216.36Z" style="fill:rgb(93,73,50);"/>
    </g>
    <g transform="matrix(1.003906,0,0,1.003906,-127.177643,-37.782779)">
        <path d="M680.44,186.587L678.965,187.498C679.159,186.997 678.694,187.035 678.878,186.56C678.923,186.444 678.989,186.562 680.44,186.587Z" style="fill:rgb(85,63,47);"/>
    </g>
    <g transform="matrix(1.003906,0,0,1.003906,-127.177643,-37.782779)">
        <path d="M402.502,339.225C402.346,339.215 399.29,339.02 400.698,338.5C400.698,338.5 402.357,339.167 402.502,339.225Z" style="fill:rgb(54,36,20);"/>
    </g>
    <g transform="matrix(0.735668,-0.080694,0.080694,0.735668,-111.77584,67.531809)">
        <path d="M516.972,195.5C518.201,196.084 518.321,195.902 518.88,197.182C522.142,204.645 533.774,205.175 537.18,214.531C538.002,216.791 536.064,217.407 534.872,215.29C526.255,199.989 506.583,203.639 499.932,216.804C498.192,220.247 497.423,217.245 497.625,216.523C500.195,207.326 510.317,206.939 516.972,195.5Z" style="fill:rgb(52,27,5);"/>
    </g>
    <g transform="matrix(1.304738,-0.141321,0.141321,1.304738,-418.109454,-13.736768)">
        <path d="M517.475,194.404C514.486,193.917 514.851,193.276 513.227,190.666C512.231,189.066 505.461,189.784 509.77,186.881C518.008,181.329 531.609,188.905 522.476,189.2C518.548,189.327 520.679,192.17 517.475,194.404Z" style="fill:rgb(155,86,41);"/>
    </g>
</svg>
