<?xml version="1.0" encoding="UTF-8" standalone="no"?>
<!DOCTYPE svg PUBLIC "-//W3C//DTD SVG 1.1//EN" "http://www.w3.org/Graphics/SVG/1.1/DTD/svg11.dtd">
<svg width="100%" height="100%" viewBox="0 0 725 307" version="1.1" xmlns="http://www.w3.org/2000/svg" xmlns:xlink="http://www.w3.org/1999/xlink" xml:space="preserve" xmlns:serif="http://www.serif.com/" style="fill-rule:evenodd;clip-rule:evenodd;stroke-linejoin:round;stroke-miterlimit:2;">
    <g transform="matrix(1.004883,0,0,1.004883,-155.626533,-101.629002)">
        <path d="M162.5,405.45C155.188,405.7 154.807,405.796 154.877,405.19C154.996,404.16 155.252,404.238 164.844,396.906C219.225,355.337 219.798,356.143 224.425,352.404C233.707,344.903 342.594,263.547 358.819,250.909C365.973,245.335 366.508,246.174 375.504,246.176C493.296,246.208 493.345,245.628 494.746,246.131C497.517,247.125 494.909,247.756 492.713,249.73C468.485,271.497 469.185,298.417 456.158,352.412C450.139,377.361 427.562,404.897 427.26,405.081C425.175,406.352 183.681,405.523 162.5,405.45Z" style="fill:rgb(51,25,3);"/>
    </g>
    <g transform="matrix(1.004883,0,0,1.004883,-155.626533,-101.629002)">
        <path d="M439.5,405.511C435.01,405.509 435.767,404.005 435.935,403.735C451.465,378.802 458.625,380.386 470.279,315.461C476.588,280.31 487.431,239.669 542.533,234.86C549.485,234.253 553.153,241.409 595.476,141.94C595.492,141.903 607.284,112.894 614.565,103.125C621.207,94.213 617.997,118.05 617.475,119.359C612.135,132.753 592.791,183.889 590.487,189.495C585.307,202.093 578.113,220.59 577.058,223.302C575.109,228.314 570.002,237.886 572.706,239.112C577.005,241.061 592.582,244.882 608.176,262.734C624.5,281.423 624.214,306.05 625.772,307.035C629.857,309.616 639.942,303.856 637.642,323.518C637.448,325.178 631.28,364.151 629.086,370.357C623.514,386.125 605.331,382.579 608.574,359.511C608.953,356.821 623.428,347.292 615.49,345.544C612.141,344.806 602.793,361.441 584.471,357.685C574.979,355.739 560.281,346.016 560.586,324.504C560.744,313.408 555.208,319.823 555.037,320.351C553.624,324.728 553.561,350.923 576.654,361.169C582.08,363.576 584.524,362.737 583.519,366.505C580.167,379.066 568.473,404.892 564.495,405.465C563.957,405.543 457.255,405.455 439.5,405.511Z" style="fill:rgb(94,43,3);"/>
    </g>
    <g transform="matrix(1.004883,0,0,1.004883,-155.626533,-101.629002)">
        <path d="M602.524,245.963C610.822,246.341 866.276,246.222 873.592,246.037C877.915,245.802 875.276,247.95 875.107,248.061C860.873,257.47 861.413,258.084 829.785,281.877C794.98,308.06 668.738,404.492 666.432,405.255C663.586,406.196 582.77,405.595 575.495,405.541C570.288,405.502 577.04,402.983 588.079,372.322C590.096,366.721 588.589,364.633 594.536,363.771C599.481,363.054 602.036,360.477 602.087,365.488C602.24,380.413 611.836,385.692 617.474,385.843C634.633,386.3 636.924,364.58 638.112,357.46C644.986,316.25 644.626,316.146 643.646,312.456C641.117,302.926 632.26,301.934 631.43,301.643C629.988,301.137 628.693,278.108 614.26,260.712C603.942,248.276 596.493,246.703 602.524,245.963Z" style="fill:rgb(51,26,3);"/>
    </g>
</svg>
