<?xml version="1.0" encoding="UTF-8" standalone="no"?>
<!DOCTYPE svg PUBLIC "-//W3C//DTD SVG 1.1//EN" "http://www.w3.org/Graphics/SVG/1.1/DTD/svg11.dtd">
<svg width="100%" height="100%" viewBox="0 0 725 246" version="1.1" xmlns="http://www.w3.org/2000/svg" xmlns:xlink="http://www.w3.org/1999/xlink" xml:space="preserve" xmlns:serif="http://www.serif.com/" style="fill-rule:evenodd;clip-rule:evenodd;stroke-linejoin:round;stroke-miterlimit:2;">
    <g transform="matrix(1.003906,0,0,1.003906,-155.298874,-178.356502)">
        <path d="M154.695,404.603C165.543,395.59 166.751,397.202 295.581,298.616C301.067,294.418 359.649,249.588 364.671,246.829C365.415,246.419 365.395,246.301 403.496,246.257C409.332,246.251 408.158,248.83 409.796,261.463C416.637,314.232 409.745,326.741 431.036,375.727C435.636,386.311 440.003,405.23 435.539,405.856C434.92,405.943 205.503,405.858 185.5,405.851C157.141,405.84 157.174,405.985 156.543,406.062C155.641,406.172 155.647,406.177 155.586,406.129C154.81,405.516 155.421,405.177 154.695,404.603Z" style="fill:rgb(52,27,5);"/>
    </g>
    <g transform="matrix(1.003906,0,0,1.003906,-155.298874,-178.356502)">
        <path d="M480.305,339.736C483.374,342.049 483.305,342.741 484.4,342.186C486.392,341.174 480.502,318.083 494.822,301.812C508.578,286.182 504.893,283.394 512.281,264.42C527.611,225.055 538.469,276.377 544.853,281.004C545.276,281.311 568.827,283.01 585.202,293.948C590.41,297.428 590.812,295.214 596.34,292.196C598.545,290.993 603.687,287.951 610.577,285.219C611.12,285.003 617.053,290.971 617.594,290.772C618.106,290.583 614.971,283.411 615.477,283.24C615.635,283.186 615.792,283.134 615.949,283.082C623.156,280.712 629.413,280.281 629.222,288.492C628.864,303.928 618.629,321.328 616.938,324.7C607.069,344.374 613.31,348.16 606.184,362.326C596.951,380.678 584.712,381.201 579.602,385.622C569.4,394.446 568.927,402.784 568.461,404.486C568.083,405.866 567.462,405.875 514.5,405.851C444.872,405.82 443.776,406.236 443.616,404.474C442.667,394.02 445.042,393.04 433.206,364.634C410.981,311.295 424.269,254.66 407.177,228.721C404.879,225.235 384.966,210.596 398.71,202.873C402.402,200.798 400.478,199.716 400.897,195.52C402.636,178.059 414.716,187.555 416.646,184.624C425.696,170.877 435.187,180.976 436.773,185.413C438.498,190.243 440.677,184.706 445.613,186.13C460.306,190.368 453.688,199.639 454.577,210.539C455.344,219.933 454.179,228.395 451.824,237.584C449.23,247.707 463.805,324.093 480.305,339.736ZM517.776,298.613C518.117,297.897 518.566,297.236 518.908,296.52C521.088,291.951 505.477,299.989 511.627,310.436C520.539,325.574 544.609,309.852 529.273,296.873C527.028,294.973 527.886,297.59 527.657,300.514C526.999,308.899 515.373,311.049 517.776,298.613ZM562.126,318.331C556.161,337.863 591.301,338.243 585.501,318.5C584.329,314.513 575.052,307.974 576.932,314.381C579.908,324.524 565.136,328.482 566.627,317.513C567.058,314.34 569.437,311.933 566.454,313.066C565.276,313.513 562.424,317.875 562.126,318.331Z" style="fill:rgb(93,44,4);"/>
    </g>
    <g transform="matrix(1.003906,0,0,1.003906,-155.298874,-178.356502)">
        <path d="M876.134,247.318C872.207,250.704 871.716,249.934 824.412,286.387C821.767,288.425 672.563,401.488 671.391,402.347C670.49,403.007 661.927,409.282 657.73,405.268C657.675,405.215 649.438,374.266 658.508,364.748C667.181,355.646 675.613,346.271 690.097,334.66C690.896,334.019 695.316,328.199 692.974,327.316C690.537,326.397 683.934,326.516 680.314,327.089C662.931,329.843 650.837,334.212 631.049,352.337C618.987,363.384 624.817,387.064 623.341,385.352C622.171,383.994 618.002,382.305 615.903,381.684C610.799,380.173 602.466,378.496 604.298,376.337C620.553,357.179 613.947,343.506 621.925,328.788C648.43,279.896 630.614,272.413 617.535,275.658C601.395,279.662 591.866,290.425 587.288,287.864C557.274,271.07 548.89,279.17 545.933,272.319C539.026,256.321 538.701,255.442 531.977,248.125C528.807,244.676 534.174,246.393 590.5,246.271C613.291,246.221 874.957,245.651 875.386,245.98C875.792,246.291 875.729,247.007 876.134,247.318Z" style="fill:rgb(52,27,5);"/>
    </g>
    <g transform="matrix(1.003906,0,0,1.003906,-155.298874,-178.356502)">
        <path d="M509.079,256.352C501.857,270.468 501.328,285.717 493.391,294.397C472.968,316.731 482.157,327.389 477.65,325.263C475.179,324.098 454.941,249.329 458.538,246.565C459.323,245.962 482.03,246.456 512.521,246.222C517.359,246.185 512.689,248.6 509.079,256.352Z" style="fill:rgb(51,27,4);"/>
    </g>
    <g transform="matrix(1.003906,0,0,1.003906,-155.298874,-178.356502)">
        <path d="M632.156,356.953C632.661,355.621 647.266,343.848 658.815,337.386C672.161,329.918 686.068,329.421 688.719,329.114C694.299,328.469 681.71,339.034 672.772,345.424C648.247,362.954 648.45,371.292 651.082,403.485C651.354,406.808 643.325,405.769 639.502,405.788C633.996,405.816 633.269,406.71 631.691,401.497C628.338,390.423 626.739,383.028 626.8,378.005C626.907,369.34 625.966,363.51 632.156,356.953Z" style="fill:rgb(90,45,3);"/>
    </g>
    <g transform="matrix(1.003906,0,0,1.003906,-155.298874,-178.356502)">
        <path d="M574.666,405.532C575.341,403.126 580.364,385.236 598.501,385.352C626.91,385.535 630.044,421.611 612.529,417.349C606.28,415.828 607.742,421.177 601.448,422.192C594.688,423.282 594.713,421.848 590.126,416.823C588.932,415.515 573.641,422.047 574.666,405.532Z" style="fill:rgb(91,46,4);"/>
    </g>
    <g transform="matrix(0.994971,0.343327,-0.343327,0.994971,-58.378702,-222.919266)">
        <path d="M516.972,195.5C518.201,196.084 518.321,195.902 518.88,197.182C522.142,204.645 533.774,205.175 537.18,214.531C538.002,216.791 536.064,217.407 534.872,215.29C526.255,199.989 506.583,203.639 499.932,216.804C498.192,220.247 497.423,217.245 497.625,216.523C500.195,207.326 510.317,206.939 516.972,195.5Z" style="fill:rgb(52,27,5);"/>
    </g>
    <g transform="matrix(0.994971,0.343327,-0.343327,0.994971,-58.378702,-222.919266)">
        <path d="M517.475,194.404C514.486,193.917 514.851,193.276 513.227,190.666C512.231,189.066 505.461,189.784 509.77,186.881C518.008,181.329 531.609,188.905 522.476,189.2C518.548,189.327 520.679,192.17 517.475,194.404Z" style="fill:rgb(155,86,41);"/>
    </g>
    <g transform="matrix(1.003607,0.482836,-0.482836,1.003607,-1.641617,-322.597977)">
        <path d="M362.503,200.751C353.02,199.189 357.372,195.082 356.77,185.465C356.466,180.596 359.439,174.737 366.388,176.912C371.299,178.45 371.343,177.979 376.491,178.656C381.999,179.38 385.359,187.531 376.398,191.272C368.416,194.604 370.999,199.254 362.503,200.751Z" style="fill:rgb(153,80,34);"/>
    </g>
    <g transform="matrix(1.003607,0.482836,-0.482836,1.003607,-2.641617,-320.597977)">
        <path d="M351.452,174.511C349.75,186.64 332.673,170.389 341.344,167.091C347.567,164.723 351.082,173.578 351.452,174.511Z" style="fill:rgb(148,81,36);"/>
    </g>
    <g transform="matrix(1.003607,0.482836,-0.482836,1.003607,-3.641617,-320.597977)">
        <path d="M353.668,167.373C353.348,166.823 350.607,162.119 351.799,159.637C353.044,157.042 355.152,157.071 355.512,157.076C364.356,157.197 365.067,177.54 353.668,167.373Z" style="fill:rgb(154,83,37);"/>
    </g>
    <g transform="matrix(1.003607,0.482836,-0.482836,1.003607,-3.323221,-324.163439)">
        <path d="M373.57,159.146C383.859,163.425 376.311,177.356 370.79,169.241C370.189,168.357 368.385,165.559 369.199,162.43C370.247,158.398 373.065,159.191 373.57,159.146Z" style="fill:rgb(148,81,35);"/>
    </g>
    <g transform="matrix(1.003607,0.482836,-0.482836,1.003607,-2.641617,-320.597977)">
        <path d="M341.366,191.713C333.812,186.071 338.816,181.904 344.481,183.564C351.42,185.598 351.607,195.568 341.366,191.713Z" style="fill:rgb(143,77,35);"/>
    </g>
</svg>
